<svg width="576" height="433" viewBox="0 0 576 433" fill="none" xmlns="http://www.w3.org/2000/svg">
<path d="M226.688 79.9163C225.329 77.4973 222.771 76 219.997 76H188.646C185.8 76 183.188 77.5749 181.859 80.0918L90.7206 252.733C89.633 254.794 89.54 257.236 90.4679 259.373L107.009 297.467C108.226 300.271 110.992 302.085 114.049 302.085H226.841C229.372 302.085 231.739 300.837 233.171 298.751L254.406 267.789C257.896 262.7 254.259 255.783 248.089 255.773L153.132 255.62C147.385 255.611 143.687 249.521 146.329 244.417L197.714 145.155C200.521 139.732 208.23 139.601 211.221 144.925L297.294 298.168C298.653 300.587 301.211 302.085 303.986 302.085H338.362C344.229 302.085 347.927 295.767 345.053 290.651L226.688 79.9163Z" fill="#212121"/>
<path d="M365.28 298.168C366.639 300.587 369.197 302.085 371.971 302.085H406.348C412.215 302.085 415.913 295.767 413.039 290.651L294.674 79.9163C293.315 77.4973 290.757 76 287.983 76H253.606C247.739 76 244.041 82.3172 246.915 87.4332L365.28 298.168Z" fill="#212121"/>
<path d="M431.238 298.168C432.596 300.587 435.155 302.085 437.929 302.085H472.305C478.173 302.085 481.87 295.767 478.997 290.651L360.632 79.9163C359.273 77.4973 356.714 76 353.94 76H319.564C313.696 76 309.999 82.3172 312.872 87.4332L431.238 298.168Z" fill="#212121"/>
<path d="M111.925 337.768C111.925 335.866 110.794 334.427 107.196 334.427C102.879 334.427 101.285 335.764 101.028 339.156H95.7852C96.0422 334.119 99.2805 330.161 107.196 330.161C113.005 330.161 117.322 332.371 117.322 339.362V351.852C117.322 353.703 117.734 354.679 119.841 354.474V357.044C118.607 357.506 117.734 357.609 116.706 357.609C113.827 357.609 112.491 356.581 111.977 354.011H111.874C110.229 356.324 107.248 357.918 103.187 357.918C97.8413 357.918 94.5516 354.833 94.5516 350.413C94.5516 344.656 98.8179 342.857 105.397 341.572C109.458 340.801 111.925 340.287 111.925 337.768ZM104.369 353.651C108.841 353.651 111.925 351.441 111.925 347.175V343.217C111.051 343.834 108.944 344.45 106.425 344.964C101.953 345.941 100 347.226 100 349.899C100 352.315 101.439 353.651 104.369 353.651ZM139.241 330.88H144.638V357.146H139.241V353.754H139.138C137.75 355.81 135.026 357.866 130.502 357.866C125.619 357.866 121.764 355.039 121.764 349.025V330.88H127.213V347.483C127.213 351.03 128.703 353.291 132.404 353.291C136.568 353.291 139.241 350.773 139.241 346.866V330.88ZM161.293 335.301H156.358V349.539C156.358 352.52 157.797 352.88 161.293 352.675V357.095C160.213 357.352 159.031 357.506 157.592 357.506C153.274 357.506 150.91 355.553 150.91 350.002V335.301H147.106V330.88H150.91V322.605H156.358V330.88H161.293V335.301ZM175.758 357.918C167.534 357.918 162.548 352.212 162.548 344.039C162.548 335.866 167.534 330.161 175.758 330.161C183.983 330.161 188.969 335.866 188.969 344.039C188.969 352.212 183.983 357.918 175.758 357.918ZM175.758 353.497C180.899 353.497 183.571 349.436 183.571 344.039C183.571 338.591 180.899 334.581 175.758 334.581C170.618 334.581 167.945 338.591 167.945 344.039C167.945 349.436 170.618 353.497 175.758 353.497ZM229.421 330.161C234.716 330.161 237.44 333.348 237.44 339.002V357.146H231.992V340.544C231.992 336.997 231.272 334.736 227.571 334.736C223.922 334.736 221.66 337.254 221.66 341.161V357.146H216.211V340.544C216.211 336.997 215.492 334.736 211.739 334.736C208.141 334.736 205.828 337.254 205.828 341.161V357.146H200.431V330.88H205.828V334.273H205.931C207.319 332.217 209.786 330.161 213.744 330.161C217.445 330.161 219.655 331.857 220.735 334.684H220.837C222.791 332.165 225.361 330.161 229.421 330.161ZM253.24 357.918C245.016 357.918 240.03 352.212 240.03 344.039C240.03 335.866 245.016 330.161 253.24 330.161C261.464 330.161 266.45 335.866 266.45 344.039C266.45 352.212 261.464 357.918 253.24 357.918ZM253.24 353.497C258.38 353.497 261.053 349.436 261.053 344.039C261.053 338.591 258.38 334.581 253.24 334.581C248.1 334.581 245.427 338.591 245.427 344.039C245.427 349.436 248.1 353.497 253.24 353.497ZM281.192 335.301H276.258V349.539C276.258 352.52 277.697 352.88 281.192 352.675V357.095C280.113 357.352 278.931 357.506 277.491 357.506C273.174 357.506 270.809 355.553 270.809 350.002V335.301H267.005V330.88H270.809V322.605H276.258V330.88H281.192V335.301ZM287.119 326.46C285.629 326.46 284.087 325.432 284.087 323.581C284.087 321.731 285.629 320.754 287.119 320.754C288.713 320.754 290.204 321.731 290.204 323.581C290.204 325.432 288.713 326.46 287.119 326.46ZM284.447 330.88H289.844V357.146H284.447V330.88ZM306.125 357.918C297.901 357.918 292.915 352.212 292.915 344.039C292.915 335.866 297.901 330.161 306.125 330.161C314.349 330.161 319.335 335.866 319.335 344.039C319.335 352.212 314.349 357.918 306.125 357.918ZM306.125 353.497C311.265 353.497 313.938 349.436 313.938 344.039C313.938 338.591 311.265 334.581 306.125 334.581C300.985 334.581 298.312 338.591 298.312 344.039C298.312 349.436 300.985 353.497 306.125 353.497ZM336.173 330.161C341.056 330.161 344.911 332.988 344.911 339.002V357.146H339.462V340.544C339.462 336.997 337.972 334.736 334.271 334.736C330.107 334.736 327.435 337.254 327.435 341.161V357.146H322.037V330.88H327.435V334.273H327.537C328.925 332.217 331.649 330.161 336.173 330.161ZM355.111 330.88H360.817L366.163 350.824H366.265L371.611 330.88H376.906L382.303 350.824H382.406L387.7 330.88H393.405L385.387 357.146H379.938L374.284 337.1H374.181L368.579 357.146H363.181L355.111 330.88ZM406.271 357.918C398.047 357.918 393.061 352.212 393.061 344.039C393.061 335.866 398.047 330.161 406.271 330.161C414.496 330.161 419.482 335.866 419.482 344.039C419.482 352.212 414.496 357.918 406.271 357.918ZM406.271 353.497C411.412 353.497 414.084 349.436 414.084 344.039C414.084 338.591 411.412 334.581 406.271 334.581C401.131 334.581 398.458 338.591 398.458 344.039C398.458 349.436 401.131 353.497 406.271 353.497ZM434.674 330.264C435.599 330.264 436.268 330.315 437.039 330.418V335.507H436.936C431.744 334.633 427.581 338.128 427.581 343.731V357.146H422.184V330.88H427.581V335.815H427.684C429.071 332.525 431.23 330.264 434.674 330.264ZM439.477 320.395H444.875V341.418L455.566 330.88H462.197L452.225 340.647L463.276 357.146H456.8L448.524 344.193L444.875 347.637V357.146H439.477V320.395ZM475.259 341.263C480.091 342.394 485.333 343.474 485.333 349.745C485.333 354.782 481.016 357.918 474.642 357.918C466.161 357.918 462.511 353.96 462.254 348.408H467.497C467.754 351.235 468.988 353.651 474.539 353.651C478.291 353.651 479.885 351.801 479.885 350.156C479.885 346.866 476.749 346.609 472.894 345.684C468.731 344.707 463.077 343.885 463.077 337.922C463.077 333.605 466.88 330.161 473.46 330.161C480.605 330.161 483.997 334.016 484.357 338.591H479.114C478.754 336.535 477.726 334.427 473.511 334.427C470.273 334.427 468.525 335.661 468.525 337.511C468.525 340.184 471.455 340.39 475.259 341.263Z" fill="#212121"/>
</svg>
